<?xml version="1.0" encoding="UTF-8" standalone="no" ?>
<!DOCTYPE svg PUBLIC "-//W3C//DTD SVG 1.1//EN" "http://www.w3.org/Graphics/SVG/1.1/DTD/svg11.dtd">
<svg xmlns="http://www.w3.org/2000/svg" xmlns:xlink="http://www.w3.org/1999/xlink" version="1.1" width="1280" height="1024" viewBox="0 0 1280 1024" xml:space="preserve">
<desc>Created with Fabric.js 5.3.0</desc>
<defs>
</defs>
<g transform="matrix(1 0 0 1 640 512)" id="background-logo"  >
<rect style="stroke: none; stroke-width: 0; stroke-dasharray: none; stroke-linecap: butt; stroke-dashoffset: 0; stroke-linejoin: miter; stroke-miterlimit: 4; fill: rgb(255,255,255); fill-opacity: 0; fill-rule: nonzero; opacity: 1;"  paint-order="stroke"  x="-640" y="-512" rx="0" ry="0" width="1280" height="1024" />
</g>
<g transform="matrix(1.9211538461538462 0 0 1.9211538461538462 640 405.79935550752316)" id="logo-logo"  >
<g style=""  paint-order="stroke"   >
		<g transform="matrix(0.5250690403802821 0 0 -0.5250690403802821 0 0)"  >
<linearGradient id="SVGID_9993" gradientUnits="userSpaceOnUse" gradientTransform="matrix(1 0 0 1 297.602 1824.94)"  x1="0" y1="0" x2="0" y2="258">
<stop offset="0%" style="stop-color:rgb(23,234,217);stop-opacity: 1"/>
<stop offset="100%" style="stop-color:rgb(96,120,234);stop-opacity: 1"/>
</linearGradient>
<path style="stroke: none; stroke-width: 1; stroke-dasharray: none; stroke-linecap: butt; stroke-dashoffset: 0; stroke-linejoin: miter; stroke-miterlimit: 10; fill: url(#SVGID_9993); fill-rule: nonzero; opacity: 1;"  paint-order="stroke"  transform=" translate(-426.592, -1953.9250000000002)" d="M 519.898 1951.91 L 535.793 1967.8000000000002 C 548.5550000000001 1980.5100000000002 555.582 1997.4600000000003 555.582 2015.4900000000002 C 555.582 2033.5000000000002 548.555 2050.44 535.793 2063.1600000000003 C 523.074 2075.9200000000005 506.137 2082.9100000000003 488.125 2082.9100000000003 C 470.133 2082.9100000000003 453.188 2075.9200000000005 440.426 2063.1600000000003 C 435.75399999999996 2058.4400000000005 431.77 2053.09 428.637 2047.2300000000002 L 412.711 2063.1600000000003 C 399.961 2075.9200000000005 383.047 2082.9100000000003 365.016 2082.9100000000003 C 347.016 2082.9100000000003 330.063 2075.9200000000005 317.348 2063.1600000000003 C 304.63300000000004 2050.4400000000005 297.60200000000003 2033.5000000000002 297.60200000000003 2015.4900000000002 C 297.60200000000003 1997.4600000000003 304.63300000000004 1980.5100000000002 317.348 1967.8000000000002 C 322.10200000000003 1963.0500000000002 327.473 1959.0600000000002 333.242 1955.9700000000003 L 317.348 1940.0800000000002 C 304.63300000000004 1927.3700000000001 297.60200000000003 1910.42 297.60200000000003 1892.38 C 297.60200000000003 1874.3400000000001 304.63300000000004 1857.44 317.348 1844.73 C 330.063 1831.96 347.016 1824.94 365.016 1824.94 C 383.047 1824.94 399.99600000000004 1831.96 412.711 1844.73 C 417.438 1849.39 421.406 1854.79 424.535 1860.6100000000001 L 440.42600000000004 1844.73 C 453.18800000000005 1831.96 470.13300000000004 1824.94 488.12500000000006 1824.94 C 506.13700000000006 1824.94 523.0740000000001 1831.96 535.8240000000001 1844.73 C 562.113 1871.01 562.113 1913.79 535.8240000000001 1940.08 C 531.0310000000001 1944.84 525.6680000000001 1948.82 519.898 1951.9099999999999 M 451.918 2051.66 C 461.60200000000003 2061.33 474.473 2066.6499999999996 488.125 2066.6499999999996 C 501.781 2066.6499999999996 514.664 2061.3299999999995 524.336 2051.66 C 534.004 2041.9899999999998 539.32 2029.1499999999999 539.32 2015.4899999999998 C 539.32 2001.7999999999997 534.004 1988.9599999999998 524.336 1979.2999999999997 L 503.125 1958.0899999999997 C 498.246 1959.1699999999996 493.242 1959.8399999999997 488.125 1959.8399999999997 C 486.379 1959.8399999999997 484.629 1959.6999999999996 482.93 1959.5999999999997 L 513.484 1990.1299999999997 C 520.27 1996.8899999999996 523.965 2005.9099999999996 523.965 2015.4899999999996 C 523.965 2025.0399999999995 520.27 2034.0599999999995 513.484 2040.8599999999994 C 506.69500000000005 2047.5899999999995 497.71500000000003 2051.3399999999992 488.12500000000006 2051.3399999999992 C 478.53900000000004 2051.3399999999992 469.56300000000005 2047.5899999999992 462.77000000000004 2040.8599999999992 C 457.65200000000004 2035.7399999999993 454.45300000000003 2029.4299999999992 453.06300000000005 2022.8099999999993 L 440.879 2035.0099999999993 C 443.43800000000005 2041.1799999999994 447.172 2046.9099999999994 451.918 2051.6599999999994 M 474.27 2001.5999999999995 C 466.633 2009.2799999999995 466.633 2021.7099999999994 474.27 2029.3599999999994 C 477.969 2033.0599999999995 482.89099999999996 2035.0699999999995 488.125 2035.0699999999995 C 493.375 2035.0699999999995 498.285 2033.0599999999995 501.984 2029.3599999999994 C 505.68399999999997 2025.6599999999994 507.703 2020.6999999999994 507.703 2015.4899999999996 C 507.703 2010.2599999999995 505.68399999999997 2005.3399999999995 501.984 2001.5999999999995 L 486.055 1985.7099999999994 C 482.93 1991.5199999999993 478.988 1996.9299999999994 474.27 2001.5999999999995 M 328.852 1979.2999999999995 C 319.17999999999995 1988.9299999999996 313.852 2001.7999999999995 313.852 2015.4899999999996 C 313.852 2029.1899999999996 319.17999999999995 2042.0299999999995 328.852 2051.6599999999994 C 338.52 2061.3299999999995 351.359 2066.649999999999 365.01599999999996 2066.649999999999 C 378.70699999999994 2066.649999999999 391.539 2061.329999999999 401.21099999999996 2051.6599999999994 L 462.74199999999996 1990.1299999999994 L 462.77 1990.1299999999994 C 468.668 1984.2499999999993 473.05899999999997 1976.9299999999994 475.49199999999996 1969.0199999999995 L 478.539 1959.0599999999995 C 472.973 1958.2999999999995 467.52299999999997 1956.8699999999994 462.363 1954.7499999999995 C 462.156 1963.6399999999996 458.711 1972.5099999999995 451.918 1979.2999999999995 C 445.188 1986.0799999999995 436.156 1989.7799999999995 426.56600000000003 1989.7799999999995 C 416.98400000000004 1989.7799999999995 408.004 1986.0799999999995 401.211 1979.2999999999995 C 391.539 1969.6299999999994 378.707 1964.3099999999995 365.016 1964.3099999999995 C 351.35900000000004 1964.3099999999995 338.52000000000004 1969.6299999999994 328.85200000000003 1979.2999999999995 M 446.148 1953.9399999999996 C 446.148 1948.9399999999996 444.242 1943.8999999999996 440.42600000000004 1940.0799999999997 C 436.73 1936.3799999999997 431.80100000000004 1934.2999999999997 426.56600000000003 1934.2999999999997 C 421.324 1934.2999999999997 416.41 1936.3799999999997 412.711 1940.0799999999997 C 405.074 1947.7299999999998 405.074 1960.1599999999996 412.711 1967.7999999999997 C 416.41 1971.4899999999998 421.324 1973.5199999999998 426.56600000000003 1973.5199999999998 C 431.80100000000004 1973.5199999999998 436.73 1971.4899999999998 440.42600000000004 1967.7999999999997 C 444.242 1963.9799999999998 446.148 1958.9499999999998 446.148 1953.9399999999998 M 401.211 1856.1799999999998 C 391.539 1846.5199999999998 378.707 1841.1899999999998 365.016 1841.1899999999998 C 351.35900000000004 1841.1899999999998 338.52000000000004 1846.5499999999997 328.85200000000003 1856.1799999999998 C 319.18 1865.85 313.85200000000003 1878.6899999999998 313.85200000000003 1892.3799999999999 C 313.85200000000003 1906.08 319.18 1918.9099999999999 328.85200000000003 1928.58 L 350.016 1949.75 C 354.90200000000004 1948.66 359.934 1948.04 365.016 1948.04 C 366.762 1948.04 368.512 1948.17 370.211 1948.3 L 339.664 1917.74 C 325.676 1903.76 325.676 1881 339.664 1867.02 C 346.445 1860.29 355.461 1856.55 365.01599999999996 1856.55 C 374.602 1856.55 383.61699999999996 1860.29 390.40999999999997 1867.02 C 395.40599999999995 1872.02 398.69899999999996 1878.24 400.11299999999994 1885.03 L 412.30899999999997 1872.84 C 409.74999999999994 1866.6599999999999 405.99999999999994 1860.98 401.21099999999996 1856.1799999999998 M 378.90599999999995 1906.2299999999998 C 382.6089999999999 1902.5399999999997 384.62899999999996 1897.6299999999999 384.62899999999996 1892.3799999999999 C 384.62899999999996 1887.1299999999999 382.609 1882.2199999999998 378.90599999999995 1878.54 C 375.203 1874.83 370.2579999999999 1872.8 365.01599999999996 1872.8 C 359.816 1872.8 354.85499999999996 1874.83 351.15599999999995 1878.54 C 343.5199999999999 1886.17 343.5199999999999 1898.59 351.15599999999995 1906.23 L 367.078 1922.17 C 370.21099999999996 1916.3100000000002 374.195 1910.95 378.90599999999995 1906.23 M 524.336 1856.18 C 514.664 1846.52 501.781 1841.19 488.125 1841.19 C 474.473 1841.19 461.602 1846.52 451.918 1856.18 L 390.35900000000004 1917.74 C 384.473 1923.63 380.08200000000005 1930.93 377.68000000000006 1938.8700000000001 L 374.63300000000004 1948.7800000000002 C 380.21500000000003 1949.5900000000001 385.61300000000006 1951.0200000000002 390.766 1953.13 C 390.98 1944.22 394.43 1935.3700000000001 401.211 1928.5800000000002 C 408.004 1921.8000000000002 417.016 1918.0600000000002 426.56600000000003 1918.0600000000002 C 436.156 1918.0600000000002 445.18800000000005 1921.8000000000002 451.918 1928.5800000000002 C 461.60200000000003 1938.2600000000002 474.473 1943.5700000000002 488.125 1943.5700000000002 C 501.781 1943.5700000000002 514.664 1938.2600000000002 524.336 1928.5800000000002 C 544.2810000000001 1908.64 544.2810000000001 1876.17 524.336 1856.18" stroke-linecap="round" />
</g>
		<g transform="matrix(0.5250690403802821 0 0 -0.5250690403802821 26.177668858546895 32.35399643662828)"  >
<linearGradient id="SVGID_9994" gradientUnits="userSpaceOnUse" gradientTransform="matrix(1 0 0 1 428.76199999999994 1856.55)"  x1="0" y1="0" x2="0" y2="72">
<stop offset="0%" style="stop-color:rgb(23,234,217);stop-opacity: 1"/>
<stop offset="100%" style="stop-color:rgb(96,120,234);stop-opacity: 1"/>
</linearGradient>
<path style="stroke: none; stroke-width: 1; stroke-dasharray: none; stroke-linecap: butt; stroke-dashoffset: 0; stroke-linejoin: miter; stroke-miterlimit: 10; fill: url(#SVGID_9994); fill-rule: nonzero; opacity: 1;"  paint-order="stroke"  transform=" translate(-476.36587499999996, -1892.405)" d="M 488.125 1928.26 C 478.539 1928.26 469.563 1924.52 462.77 1917.74 C 456.84 1911.85 449.563 1907.42 441.691 1904.98 L 428.762 1901.04 L 462.77 1867.02 C 469.563 1860.25 478.539 1856.55 488.125 1856.55 C 497.715 1856.55 506.695 1860.25 513.484 1867.02 C 527.465 1881 527.465 1903.76 513.484 1917.74 C 506.69500000000005 1924.52 497.71500000000003 1928.26 488.12500000000006 1928.26 z M 501.984 1878.54 C 498.28499999999997 1874.83 493.375 1872.8 488.125 1872.8 C 482.891 1872.8 477.969 1874.83 474.27 1878.54 L 458.34 1894.4099999999999 C 464.195 1897.55 469.563 1901.5299999999997 474.27 1906.2299999999998 C 477.969 1909.9299999999998 482.89099999999996 1911.9999999999998 488.125 1911.9999999999998 C 493.375 1911.9999999999998 498.285 1909.9299999999998 501.984 1906.2299999999998 C 509.61699999999996 1898.5899999999997 509.61699999999996 1886.1699999999998 501.984 1878.5399999999997" stroke-linecap="round" />
</g>
		<g transform="matrix(0.5250690403802821 0 0 -0.5250690403802821 -26.199321190108947 -32.3702356853)"  >
<linearGradient id="SVGID_9995" gradientUnits="userSpaceOnUse" gradientTransform="matrix(1 0 0 1 329.17600000000004 1979.6200000000003)"  x1="0" y1="0" x2="0" y2="72">
<stop offset="0%" style="stop-color:rgb(23,234,217);stop-opacity: 1"/>
<stop offset="100%" style="stop-color:rgb(96,120,234);stop-opacity: 1"/>
</linearGradient>
<path style="stroke: none; stroke-width: 1; stroke-dasharray: none; stroke-linecap: butt; stroke-dashoffset: 0; stroke-linejoin: miter; stroke-miterlimit: 10; fill: url(#SVGID_9995); fill-rule: nonzero; opacity: 1;"  paint-order="stroke"  transform=" translate(-376.7735, -2015.4800000000002)" d="M 390.359 1990.13 C 396.293 1996.0400000000002 403.613 2000.47 411.44899999999996 2002.8500000000001 L 424.371 2006.8500000000001 L 390.359 2040.8600000000001 C 383.61699999999996 2047.5900000000001 374.602 2051.34 365.01599999999996 2051.34 C 355.46099999999996 2051.34 346.44499999999994 2047.5900000000001 339.664 2040.8600000000001 C 332.92199999999997 2034.0600000000002 329.176 2025.0800000000002 329.176 2015.4900000000002 C 329.176 2005.9100000000003 332.92199999999997 1996.8900000000003 339.703 1990.1300000000003 C 346.445 1983.3600000000004 355.46099999999996 1979.6200000000003 365.01599999999996 1979.6200000000003 C 374.602 1979.6200000000003 383.61699999999996 1983.3600000000004 390.359 1990.1300000000003 z M 345.42199999999997 2015.49 C 345.42199999999997 2020.73 347.465 2025.66 351.15599999999995 2029.36 C 354.85499999999996 2033.06 359.816 2035.07 365.01599999999996 2035.07 C 370.258 2035.07 375.203 2033.06 378.90599999999995 2029.36 L 394.80099999999993 2013.4199999999998 C 388.9799999999999 2010.3 383.6169999999999 2006.31 378.90599999999995 2001.6399999999999 C 375.17199999999997 1997.8999999999999 370.2579999999999 1995.87 365.01599999999996 1995.87 C 359.816 1995.87 354.902 1997.8999999999999 351.15599999999995 2001.6 C 347.465 2005.3 345.42199999999997 2010.26 345.42199999999997 2015.49" stroke-linecap="round" />
</g>
</g>
</g>
<g transform="matrix(1.9211538461538462 0 0 1.9211538461538462 640.04995 624.0903487205342)" id="text-logo"  >
<g style=""  paint-order="stroke"   >
		<g transform="matrix(1 0 0 1 5.684342e-14 0)" id="text-logo-path-0"  >
<linearGradient id="SVGID_9996" gradientUnits="userSpaceOnUse" gradientTransform="matrix(1 0 0 1 2.5999999999999943 -35.41)"  x1="-2.626003570556634" y1="-10.30328000000003" x2="-2.626003570556634" y2="48.69671999999997">
<stop offset="0%" style="stop-color:rgb(23,234,217);stop-opacity: 1"/>
<stop offset="100%" style="stop-color:rgb(96,120,234);stop-opacity: 1"/>
</linearGradient>
<path style="stroke: none; stroke-width: 0.5584430662775732; stroke-dasharray: none; stroke-linecap: butt; stroke-dashoffset: 0; stroke-linejoin: miter; stroke-miterlimit: 4; fill: url(#SVGID_9996); fill-rule: nonzero; opacity: 1;"  paint-order="stroke"  transform=" translate(-140.92, 17.419999999999998)" d="M 35.93 -7.64 L 28.5 -11.96 C 26.83 -9.46 24.02 -7.8 20.7 -7.8 C 15.39 -7.8 11.18 -12.06 11.18 -17.42 C 11.18 -22.78 15.44 -27.04 20.7 -27.04 C 24.02 -27.04 27.09 -25.27 28.81 -22.52 L 36.14 -26.78 C 32.86 -32.03 27.14 -35.41 20.7 -35.41 C 14.04 -35.41 8.16 -31.93 4.99 -26.42 C 3.38 -23.66 2.6 -20.64 2.6 -17.42 C 2.6 -10.97 6.03 -5.15 11.6 -1.87 C 14.35 -0.26 17.42 0.57 20.7 0.57 C 26.99 0.57 32.6 -2.65 35.93 -7.64 Z M 62.76 0.57 C 69.42 0.57 75.3 -2.96 78.47 -8.48 C 80.08 -11.23 80.86 -14.2 80.86 -17.42 C 80.86 -23.87 77.43 -29.69 71.86 -32.97 C 69.11 -34.58 66.04 -35.41 62.76 -35.41 C 56.11 -35.41 50.23 -31.93 47.06 -26.42 C 45.45 -23.66 44.67 -20.64 44.67 -17.42 C 44.67 -10.97 48.1 -5.15 53.66 -1.87 C 56.42 -0.26 59.49 0.57 62.76 0.57 Z M 53.25 -17.42 C 53.25 -22.78 57.51 -27.04 62.76 -27.04 C 68.07 -27.04 72.28 -22.78 72.28 -17.42 C 72.28 -12.06 68.02 -7.8 62.76 -7.8 C 57.46 -7.8 53.25 -12.06 53.25 -17.42 Z M 99.79 0 L 99.79 -21.53 L 112.48 0 L 122.67 0 L 122.67 -34.84 L 114.35 -34.84 L 114.35 -13.21 L 101.61 -34.84 L 91.47 -34.84 L 91.47 0 Z M 141.6 0 L 141.6 -21.53 L 154.28 0 L 164.48 0 L 164.48 -34.84 L 156.16 -34.84 L 156.16 -13.21 L 143.42 -34.84 L 133.28 -34.84 L 133.28 0 Z M 175.08 0 L 200.04 0 L 200.04 -7.28 L 183.4 -7.28 L 183.4 -13.78 L 196.92 -13.78 L 196.92 -21.06 L 183.4 -21.06 L 183.4 -27.56 L 200.04 -27.56 L 200.04 -34.84 L 175.08 -34.84 Z M 243.98 -7.64 L 236.55 -11.96 C 234.88 -9.46 232.08 -7.8 228.75 -7.8 C 223.44 -7.8 219.23 -12.06 219.23 -17.42 C 219.23 -22.78 223.5 -27.04 228.75 -27.04 C 232.08 -27.04 235.14 -25.27 236.86 -22.52 L 244.19 -26.78 C 240.92 -32.03 235.2 -35.41 228.75 -35.41 C 222.09 -35.41 216.22 -31.93 213.04 -26.42 C 211.43 -23.66 210.65 -20.64 210.65 -17.42 C 210.65 -10.97 214.08 -5.15 219.65 -1.87 C 222.4 -0.26 225.47 0.57 228.75 0.57 C 235.04 0.57 240.66 -2.65 243.98 -7.64 Z M 269.88 0 L 269.88 -27.61 L 279.24 -27.61 L 279.24 -34.89 L 252.2 -34.89 L 252.2 -27.61 L 261.56 -27.61 L 261.56 0 Z" stroke-linecap="round" />
</g>
</g>
</g>
<g transform="matrix(1.9211538461538462 0 0 1.9211538461538462 640.1440865384614 715.051321278914)" id="tagline-6a89b5bc-ba7e-4bdf-b340-e8191c5f3b48-logo"  >
<g style=""  paint-order="stroke"   >
		<g transform="matrix(1 0 0 1 0 0)" id="tagline-6a89b5bc-ba7e-4bdf-b340-e8191c5f3b48-logo-path-0"  >
<path style="stroke: none; stroke-width: 0; stroke-dasharray: none; stroke-linecap: butt; stroke-dashoffset: 0; stroke-linejoin: miter; stroke-miterlimit: 4; fill: rgb(55,182,255); fill-rule: nonzero; opacity: 1;"  paint-order="stroke"  transform=" translate(-181.17, 10.05)" d="M 3.78 -6.24 L 1.5 -5.4 C 2.91 -1.59 5.64 0.3 9.72 0.3 C 14.07 0.3 17.13 -2.19 17.13 -5.55 C 17.13 -7.95 15.63 -9.36 13.8 -10.02 C 12.84 -10.38 11.64 -10.71 10.11 -11.07 C 7.5 -11.67 6.27 -12.06 5.31 -12.99 C 4.8 -13.47 4.56 -14.07 4.56 -14.82 C 4.56 -16.89 6.63 -18.3 9.27 -18.3 C 12 -18.3 13.44 -17.19 14.61 -14.25 L 16.83 -15.15 C 15.42 -18.69 12.99 -20.4 9.27 -20.4 C 5.31 -20.4 2.16 -18.06 2.16 -14.82 C 2.16 -12.27 3.78 -10.77 5.67 -10.05 C 6.66 -9.66 7.89 -9.3 9.48 -8.91 C 11.91 -8.31 13.11 -8.01 14.04 -7.17 C 14.49 -6.75 14.73 -6.21 14.73 -5.55 C 14.73 -3.3 12.81 -1.8 9.72 -1.8 C 6.45 -1.8 4.83 -3.3 3.78 -6.24 Z M 40.14 0.33 C 43.98 0.33 47.37 -1.71 49.2 -4.89 C 50.13 -6.48 50.58 -8.19 50.58 -10.05 C 50.58 -13.77 48.6 -17.13 45.39 -19.02 C 43.8 -19.95 42.03 -20.43 40.14 -20.43 C 36.3 -20.43 32.91 -18.42 31.08 -15.24 C 30.15 -13.65 29.7 -11.91 29.7 -10.05 C 29.7 -6.33 31.68 -2.97 34.89 -1.08 C 36.48 -0.15 38.25 0.33 40.14 0.33 Z M 40.14 -1.95 C 37.23 -1.95 34.62 -3.48 33.18 -5.97 C 32.46 -7.2 32.1 -8.58 32.1 -10.05 C 32.1 -13.02 33.63 -15.63 36.12 -17.1 C 37.35 -17.82 38.7 -18.18 40.14 -18.18 C 43.05 -18.18 45.66 -16.62 47.1 -14.13 C 47.82 -12.9 48.18 -11.52 48.18 -10.05 C 48.18 -7.08 46.65 -4.47 44.16 -3.03 C 42.93 -2.31 41.58 -1.95 40.14 -1.95 Z M 65.55 0 L 65.55 -15.21 L 72.72 0 L 75.09 0 L 82.29 -15.27 L 82.29 0 L 84.69 0 L 84.69 -20.1 L 82.23 -20.1 L 73.92 -2.46 L 65.58 -20.1 L 63.15 -20.1 L 63.15 0 Z M 97.26 0 L 111.66 0 L 111.66 -2.1 L 99.66 -2.1 L 99.66 -9 L 109.86 -9 L 109.86 -11.1 L 99.66 -11.1 L 99.66 -18 L 111.66 -18 L 111.66 -20.1 L 97.26 -20.1 Z M 133.83 0 L 133.83 -18 L 141.03 -18 L 141.03 -20.1 L 124.23 -20.1 L 124.23 -18 L 131.43 -18 L 131.43 0 Z M 156 0 L 156 -9 L 168 -9 L 168 0 L 170.4 0 L 170.4 -20.1 L 168 -20.1 L 168 -11.1 L 156 -11.1 L 156 -20.1 L 153.6 -20.1 L 153.6 0 Z M 185.37 0 L 185.37 -20.1 L 182.97 -20.1 L 182.97 0 Z M 200.37 0 L 200.37 -16.68 L 212.19 0 L 214.77 0 L 214.77 -20.1 L 212.37 -20.1 L 212.37 -3.39 L 200.52 -20.1 L 197.94 -20.1 L 197.97 -20.07 L 197.97 0 Z M 248.22 -10.65 L 238.32 -10.65 L 238.32 -8.55 L 245.55 -8.55 C 245.01 -6.39 243.66 -4.44 241.8 -3.18 C 240.57 -2.37 239.22 -1.95 237.78 -1.95 C 234.87 -1.95 232.26 -3.48 230.82 -5.97 C 230.1 -7.2 229.74 -8.58 229.74 -10.05 C 229.74 -13.02 231.27 -15.63 233.76 -17.1 C 234.99 -17.82 236.34 -18.18 237.78 -18.18 C 240.66 -18.18 243.21 -16.68 244.65 -14.28 L 246.69 -15.45 C 244.8 -18.48 241.5 -20.43 237.78 -20.43 C 233.94 -20.43 230.55 -18.42 228.72 -15.24 C 227.79 -13.65 227.34 -11.91 227.34 -10.05 C 227.34 -6.33 229.32 -2.97 232.53 -1.08 C 234.12 -0.15 235.89 0.33 237.78 0.33 C 241.08 0.33 243.96 -1.35 245.82 -4.02 L 245.82 0 L 248.22 0 Z M 278.79 0 L 278.79 -16.68 L 290.61 0 L 293.19 0 L 293.19 -20.1 L 290.79 -20.1 L 290.79 -3.39 L 278.94 -20.1 L 276.36 -20.1 L 276.39 -20.07 L 276.39 0 Z M 305.76 0 L 320.16 0 L 320.16 -2.1 L 308.16 -2.1 L 308.16 -9 L 318.36 -9 L 318.36 -11.1 L 308.16 -11.1 L 308.16 -18 L 320.16 -18 L 320.16 -20.1 L 305.76 -20.1 Z M 341.58 0 L 346.77 -16.44 L 351.96 0 L 354.48 0 L 360.84 -20.1 L 358.32 -20.1 L 353.22 -3.99 L 348.15 -20.1 L 345.42 -20.1 L 340.32 -3.99 L 335.25 -20.1 L 332.73 -20.1 L 339.06 0 Z" stroke-linecap="round" />
</g>
</g>
</g>
</svg>